<svg xmlns="http://www.w3.org/2000/svg" version="1.2" viewBox="0 0 500 500" width="500" height="500"><defs fill="#16a349"><linearGradient id="P" gradientUnits="userSpaceOnUse" fill="#16a349"/><linearGradient id="g1" x1="68" y1="17.3" x2="404.9" y2="17.3" href="#P" fill="#16a349"><stop stop-color="#16a349" fill="#16a349"/><stop offset=".5" stop-color="#16a349" fill="#16a349"/><stop offset="1" stop-color="#16a349" fill="#16a349"/></linearGradient><linearGradient id="g2" x1="134.3" y1="148.6" x2="457.7" y2="148.6" href="#P" fill="#16a349"><stop stop-color="#16a349" fill="#16a349"/><stop offset=".5" stop-color="#16a349" fill="#16a349"/><stop offset="1" stop-color="#16a349" fill="#16a349"/></linearGradient></defs><style>.a{fill:url(#g1)}.b{fill:url(#g2)}</style><path class="a" d="m220.1 168c159.6 1.1 150.2-13.9 150.2-13.9-3.3-51.1-171.8-137.4-276.4 11.9-86.7 123.7 37.4 279.6 37.4 279.6-94.6-65.8-149.4-216.6-48-337.2 101.4-120.6 290.6-95.9 339.9 0 49.4 96-58.9 128.9-157.6 135.7-98.7 6.9-147.4 71.4-147.4 71.4-37-90.4 38.8-147.9 101.9-147.5z" fill="#16a349"/><path class="b" d="m134.3 382.9c0 0 45 49 140.9 40.8 95.9-8.3 203.1-91.9 179.8-264.6 0 0 29.9 86.4 8 168.6-22 82.3-116.5 143.1-190.5 145.8-74.1 2.7-108.8-18-138.2-90.6z" fill="#16a349"/></svg>